<?xml version="1.0" encoding="utf-8"?>
<!-- Generator: Adobe Illustrator 17.1.0, SVG Export Plug-In . SVG Version: 6.00 Build 0)  -->
<!DOCTYPE svg PUBLIC "-//W3C//DTD SVG 1.1//EN" "http://www.w3.org/Graphics/SVG/1.1/DTD/svg11.dtd">
<svg version="1.1" id="Layer_1" xmlns="http://www.w3.org/2000/svg" xmlns:xlink="http://www.w3.org/1999/xlink" x="0px" y="0px"
	 viewBox="0 0 612 792" enable-background="new 0 0 612 792" xml:space="preserve">
<circle fill="#FFFFFF" cx="306" cy="276.1" r="276.1"/>
<path fill="#7D287D" d="M455.9,99.2v47.6c0,0-55.8-11.4-75.5,22c0,0-6.9,13.3-7.3,27.9v55.8h78.7l0.5,47.6h-79.1V544
	c0,0-16.9,6.4-50.8,8.2V300.5l-70.5,0.5v-49l70,0.9l0.9-71.8c0,0,0.9-21.5,12.4-38.4c0,0,14.2-24.2,42.5-35.2
	c0,0,15.6-10.7,50.8-10.5L455.9,99.2z"/>
</svg>
