<?xml version="1.0" encoding="utf-8"?>
<!-- Generator: Adobe Illustrator 17.1.0, SVG Export Plug-In . SVG Version: 6.00 Build 0)  -->
<!DOCTYPE svg PUBLIC "-//W3C//DTD SVG 1.1//EN" "http://www.w3.org/Graphics/SVG/1.1/DTD/svg11.dtd">
<svg version="1.1" id="Layer_1" xmlns="http://www.w3.org/2000/svg" xmlns:xlink="http://www.w3.org/1999/xlink" x="0px" y="0px"
	 viewBox="0 0 137.623 373.52" enable-background="new 0 0 137.623 373.52" xml:space="preserve">
<g>
	<path d="M36.802,4.206c0,0,32.534-9.465,62.703,0l4.732,164.447H33.253L36.802,4.206z"/>
	<path d="M38.389,172.904l-5.795,8.511c0,0-23.179,3.622-29.698,14.487L0,361.049c0,0,68.745,28.059,137.623,0V200.248
		c0,0-8.692-16.66-30.422-17.384l-4.346-9.96C102.855,172.904,68.087,183.226,38.389,172.904z"/>
	<rect x="8.261" y="262.293" fill="none" width="128.441" height="110.838"/>
	<text transform="matrix(1 0 0 1 8.2611 287.1428)"><tspan x="0" y="0" fill="#FFFFFF" stroke="#FFFFFF" stroke-miterlimit="10" font-family="'MyriadPro-Regular'" font-size="35">S</tspan><tspan x="17.255" y="0" fill="#FFFFFF" stroke="#FFFFFF" stroke-miterlimit="10" font-family="'BergamotOrnaments'" font-size="35">&lt;</tspan><tspan x="24.149" y="0" fill="#FFFFFF" stroke="#FFFFFF" stroke-miterlimit="10" font-family="'MyriadPro-Regular'" font-size="35">P</tspan><tspan x="42.77" y="0" fill="#FFFFFF" stroke="#FFFFFF" stroke-miterlimit="10" font-family="'BergamotOrnaments'" font-size="35">&lt;</tspan><tspan x="49.664" y="0" fill="#FFFFFF" stroke="#FFFFFF" stroke-miterlimit="10" font-family="'MyriadPro-Regular'" font-size="35">A</tspan><tspan x="71.084" y="0" fill="#FFFFFF" stroke="#FFFFFF" stroke-miterlimit="10" font-family="'BergamotOrnaments'" font-size="35">&lt;</tspan><tspan x="77.979" y="0" fill="#FFFFFF" stroke="#FFFFFF" stroke-miterlimit="10" font-family="'MyriadPro-Regular'" font-size="35">R</tspan><tspan x="96.808" y="0" fill="#FFFFFF" stroke="#FFFFFF" stroke-miterlimit="10" font-family="'BergamotOrnaments'" font-size="35">&lt;</tspan><tspan x="103.703" y="0" fill="#FFFFFF" stroke="#FFFFFF" stroke-miterlimit="10" font-family="'MyriadPro-Regular'" font-size="35">K</tspan></text>
</g>
</svg>
