<?xml version="1.0" encoding="utf-8"?>
<!-- Generator: Adobe Illustrator 17.1.0, SVG Export Plug-In . SVG Version: 6.00 Build 0)  -->
<!DOCTYPE svg PUBLIC "-//W3C//DTD SVG 1.1//EN" "http://www.w3.org/Graphics/SVG/1.1/DTD/svg11.dtd">
<svg version="1.1" id="Layer_1" xmlns="http://www.w3.org/2000/svg" xmlns:xlink="http://www.w3.org/1999/xlink" x="0px" y="0px"
	 viewBox="160.094 -0.001 291.811 792.001" enable-background="new 160.094 -0.001 291.811 792.001" xml:space="preserve">
<path fill="#FFFFFF" d="M238.128,8.918c0,0,68.984-20.069,132.953,0l10.034,348.688H230.603L238.128,8.918z"/>
<path fill="#FFFFFF" d="M241.493,366.62l-12.288,18.046c0,0-49.148,7.68-62.971,30.718l-6.141,350.173c0,0,145.765,59.495,291.811,0
	V424.6c0,0-18.43-35.325-64.506-36.861l-9.215-21.119C378.185,366.62,304.464,388.507,241.493,366.62z"/>
<g>
	<path stroke="#000000" stroke-miterlimit="10" d="M182.36,600.98c2.894,1.783,7.124,3.265,11.577,3.265
		c6.605,0,10.466-3.488,10.466-8.534c0-4.675-2.672-7.347-9.425-9.945c-8.166-2.894-13.21-7.124-13.21-14.177
		c0-7.792,6.457-13.581,16.178-13.581c5.123,0,8.833,1.187,11.06,2.449l-1.781,5.269c-1.633-0.893-4.972-2.375-9.499-2.375
		c-6.828,0-9.425,4.082-9.425,7.495c0,4.675,3.043,6.976,9.945,9.648c8.46,3.267,12.767,7.349,12.767,14.696
		c0,7.72-5.714,14.399-17.516,14.399c-4.824,0-10.093-1.41-12.767-3.191L182.36,600.98z"/>
	<path stroke="#000000" stroke-miterlimit="10" d="M215.756,573.746c0.297-0.543,0.558-1.149,0.78-1.817
		c0.223-0.666,0.456-1.372,0.706-2.114c0.642,0,1.41,0.221,2.301,0.666c0.891,0.447,1.41,1.09,1.558,1.93
		c-0.545,0.645-1.349,1.226-2.411,1.745c-1.064,0.517-1.993,1.175-2.782,1.966L215.756,573.746z M217.018,583.171
		c0.791,0.793,1.72,1.448,2.782,1.968c1.062,0.52,1.866,1.103,2.411,1.743c-0.148,0.842-0.668,1.484-1.558,1.93
		s-1.658,0.668-2.301,0.668c-0.248-0.744-0.483-1.448-0.706-2.116c-0.223-0.666-0.483-1.274-0.78-1.817L217.018,583.171z
		 M219.096,577.976c0.742-0.098,1.52-0.333,2.339-0.704c0.816-0.371,1.643-0.753,2.485-1.151c0.346,0.399,0.668,0.954,0.965,1.671
		c0.297,0.717,0.445,1.472,0.445,2.262c0,0.791-0.199,1.459-0.594,2.004c-0.545,0-1.126-0.1-1.745-0.299
		c-0.619-0.197-1.262-0.407-1.93-0.63c-0.668-0.223-1.349-0.447-2.04-0.668c-0.693-0.223-1.385-0.358-2.078-0.407L219.096,577.976z"
		/>
	<path stroke="#000000" stroke-miterlimit="10" d="M234.456,559.419c3.117-0.52,7.201-0.965,12.396-0.965
		c6.382,0,11.058,1.484,14.028,4.156c2.746,2.375,4.379,6.011,4.379,10.466c0,4.529-1.336,8.089-3.859,10.689
		c-3.414,3.636-8.98,5.492-15.29,5.492c-1.93,0-3.711-0.074-5.195-0.445v20.04h-6.459V559.419z M240.914,583.54
		c1.41,0.371,3.191,0.52,5.345,0.52c7.792,0,12.544-3.785,12.544-10.689c0-6.605-4.678-9.796-11.802-9.796
		c-2.82,0-4.972,0.223-6.085,0.519v19.446H240.914z"/>
	<path stroke="#000000" stroke-miterlimit="10" d="M269.855,573.746c0.297-0.543,0.558-1.149,0.78-1.817
		c0.223-0.666,0.456-1.372,0.706-2.114c0.642,0,1.41,0.221,2.301,0.666c0.891,0.447,1.41,1.09,1.558,1.93
		c-0.545,0.645-1.349,1.226-2.411,1.745c-1.064,0.517-1.993,1.175-2.782,1.966L269.855,573.746z M271.117,583.171
		c0.791,0.793,1.72,1.448,2.782,1.968c1.062,0.52,1.866,1.103,2.411,1.743c-0.148,0.842-0.668,1.484-1.558,1.93
		s-1.658,0.668-2.301,0.668c-0.248-0.744-0.483-1.448-0.706-2.116c-0.223-0.666-0.483-1.274-0.78-1.817L271.117,583.171z
		 M273.195,577.976c0.742-0.098,1.52-0.333,2.339-0.704c0.816-0.371,1.643-0.753,2.485-1.151c0.346,0.399,0.668,0.954,0.965,1.671
		c0.297,0.717,0.445,1.472,0.445,2.262c0,0.791-0.199,1.459-0.594,2.004c-0.545,0-1.126-0.1-1.745-0.299
		c-0.619-0.197-1.262-0.407-1.93-0.63s-1.349-0.447-2.04-0.668c-0.693-0.223-1.385-0.358-2.078-0.407L273.195,577.976z"/>
	<path stroke="#000000" stroke-miterlimit="10" d="M296.648,593.114l-5.195,15.735h-6.681l16.997-50.026h7.794l17.071,50.026h-6.904
		l-5.345-15.735H296.648z M313.049,588.065l-4.898-14.397c-1.113-3.265-1.855-6.234-2.6-9.13h-0.148
		c-0.742,2.969-1.556,6.011-2.521,9.056l-4.9,14.472H313.049z"/>
	<path stroke="#000000" stroke-miterlimit="10" d="M329.893,573.746c0.299-0.543,0.558-1.149,0.78-1.817
		c0.22-0.666,0.456-1.372,0.704-2.114c0.642,0,1.41,0.221,2.301,0.666c0.891,0.447,1.41,1.09,1.558,1.93
		c-0.545,0.645-1.349,1.226-2.413,1.745c-1.064,0.517-1.991,1.175-2.782,1.966L329.893,573.746z M331.155,583.171
		c0.791,0.793,1.72,1.448,2.782,1.968c1.062,0.52,1.866,1.103,2.411,1.743c-0.146,0.842-0.666,1.484-1.556,1.93
		c-0.891,0.445-1.658,0.668-2.301,0.668c-0.248-0.744-0.483-1.448-0.706-2.116c-0.221-0.666-0.483-1.274-0.778-1.817
		L331.155,583.171z M333.233,577.976c0.744-0.098,1.522-0.333,2.339-0.704c0.816-0.371,1.643-0.753,2.487-1.151
		c0.346,0.399,0.666,0.954,0.965,1.671c0.297,0.717,0.445,1.472,0.445,2.262c0,0.791-0.199,1.459-0.594,2.004
		c-0.545,0-1.126-0.1-1.743-0.299c-0.619-0.197-1.262-0.407-1.93-0.63c-0.668-0.223-1.349-0.447-2.042-0.668
		c-0.693-0.223-1.385-0.358-2.076-0.407L333.233,577.976z"/>
	<path stroke="#000000" stroke-miterlimit="10" d="M348.595,559.493c3.265-0.668,7.941-1.039,12.396-1.039
		c6.902,0,11.355,1.262,14.472,4.082c2.523,2.228,3.933,5.64,3.933,9.499c0,6.605-4.156,10.986-9.425,12.767v0.223
		c3.859,1.336,6.16,4.9,7.347,10.095c1.635,6.976,2.82,11.8,3.859,13.732h-6.679c-0.816-1.41-1.93-5.714-3.34-11.95
		c-1.484-6.904-4.156-9.499-10.021-9.724h-6.085v21.674h-6.457V559.493z M355.052,582.279h6.605c6.904,0,11.282-3.785,11.282-9.499
		c0-6.459-4.678-9.279-11.505-9.353c-3.119,0-5.345,0.299-6.384,0.594v18.259H355.052z"/>
	<path stroke="#000000" stroke-miterlimit="10" d="M384.438,573.746c0.297-0.543,0.558-1.149,0.778-1.817
		c0.223-0.666,0.458-1.372,0.706-2.114c0.642,0,1.41,0.221,2.301,0.666c0.891,0.447,1.41,1.09,1.556,1.93
		c-0.545,0.645-1.349,1.226-2.411,1.745c-1.067,0.517-1.993,1.175-2.782,1.966L384.438,573.746z M385.699,583.171
		c0.791,0.793,1.72,1.448,2.782,1.968c1.062,0.52,1.868,1.103,2.413,1.743c-0.148,0.842-0.668,1.484-1.558,1.93
		s-1.656,0.668-2.301,0.668c-0.248-0.744-0.483-1.448-0.704-2.116c-0.223-0.666-0.483-1.274-0.78-1.817L385.699,583.171z
		 M387.779,577.976c0.742-0.098,1.52-0.333,2.339-0.704c0.816-0.371,1.643-0.753,2.485-1.151c0.346,0.399,0.668,0.954,0.965,1.671
		c0.299,0.717,0.445,1.472,0.445,2.262c0,0.791-0.199,1.459-0.592,2.004c-0.547,0-1.126-0.1-1.745-0.299
		c-0.619-0.197-1.262-0.407-1.93-0.63c-0.666-0.223-1.349-0.447-2.04-0.668c-0.693-0.223-1.385-0.358-2.078-0.407L387.779,577.976z"
		/>
	<path stroke="#000000" stroke-miterlimit="10" d="M403.139,558.823h6.459v24.121h0.221c1.336-1.93,2.674-3.711,3.933-5.343
		l15.29-18.778h8.015l-18.11,21.227l19.52,28.799h-7.644l-16.477-24.569l-4.75,5.494v19.075h-6.459v-50.026H403.139z"/>
</g>
</svg>
