<?xml version="1.0" encoding="utf-8"?>
<!-- Generator: Adobe Illustrator 17.1.0, SVG Export Plug-In . SVG Version: 6.00 Build 0)  -->
<!DOCTYPE svg PUBLIC "-//W3C//DTD SVG 1.1//EN" "http://www.w3.org/Graphics/SVG/1.1/DTD/svg11.dtd">
<svg version="1.1" id="Layer_1" xmlns="http://www.w3.org/2000/svg" xmlns:xlink="http://www.w3.org/1999/xlink" x="0px" y="0px"
	 viewBox="0 0 111.905 160.51" enable-background="new 0 0 111.905 160.51" xml:space="preserve">
<circle fill="#FFFFFF" cx="55.952" cy="55.952" r="55.952"/>
<path fill="#7D287D" d="M37.996,53.904c0,0-8.446-17.965,8.972-28.806c0,0,22.037-9.13,29.907,9.917c0,0,4.722,12.75-6.139,26.759
	c0,0-11.019,11.019-16.213-1.889c0,0,5.824-14.954,4.88-21.093c0,0-3.148-11.963-11.963-3.935c0,0-6.611,6.296-2.204,16.528
	l-7.398,29.75l0.944,15.898c0,0,2.813,3.286,6.611-6.611l4.407-9.759l1.889-11.806c0,0,5.96,7.955,17.157,5.509
	c0,0,11.962-1.658,17.726-16.662c0,0,7.602-18.851-5.474-34.794c0,0-18.547-19.242-43.757-1.763c0,0-13.102,10.383-11.248,27.194
	c0,0,0.903,10.888,8.282,13.968c0,0,3.09,1.483,4.326-3.214C38.702,59.096,39.177,56.543,37.996,53.904z"/>
</svg>
