<?xml version="1.0" encoding="utf-8"?>
<!-- Generator: Adobe Illustrator 17.1.0, SVG Export Plug-In . SVG Version: 6.00 Build 0)  -->
<!DOCTYPE svg PUBLIC "-//W3C//DTD SVG 1.1//EN" "http://www.w3.org/Graphics/SVG/1.1/DTD/svg11.dtd">
<svg version="1.1" id="Layer_1" xmlns="http://www.w3.org/2000/svg" xmlns:xlink="http://www.w3.org/1999/xlink" x="0px" y="0px"
	 viewBox="0 0 111.905 160.51" enable-background="new 0 0 111.905 160.51" xml:space="preserve">
<circle fill="#FFFFFF" cx="55.952" cy="55.952" r="55.952"/>
<path fill="#7D287D" d="M24.685,79.082c0,0,55.627,27.228,61.189-36.596l7.241-7.056l-7.089,1.994l5.428-7.422l-8.086,2.769
	c0,0-6.314-8.308-19.495-3.212c0,0-6.978,3.212-6.757,15.286c0,0-18.055,0.281-28.911-14.068c0,0-5.428,9.637,3.212,18.388
	c0,0-3.766,0.222-5.428-1.883c0,0-1.218,10.634,9.748,14.4c0,0-2.88,1.772-5.317,0.665c0,0,3.212,9.637,12.849,10.302
	C43.269,72.648,32.242,78.981,24.685,79.082z"/>
</svg>
